# xmcd
#
# Track frame offsets: 
#        150
#        15918
#        26695
#        40446
#        53457
#        63815
#        74135
#        86702
#        98201
#        112114
#        128125
#        139439
#        155686
#        168328
#        182839
#
# Disc length: 2597 seconds
#
# Revision: 0
# Processed by: cddbd v1.5.2PL0 Copyright (c) Steve Scherf et al.
# Submitted via: ExactAudioCopy v1.0b1
#
DISCID=d20a230f
DTITLE=Los Originales de San Juan - Sus Grandes Exitos Con Banda
DYEAR=2005
DGENRE=Regional
TTITLE0=Los Chanto Fernandez
TTITLE1=La Peda
TTITLE2=Cantina De Mi Barrio
TTITLE3=El Rey Del Cristal
TTITLE4=Voy A Navegar
TTITLE5=Carga Fina
TTITLE6=La Raza Michoacana
TTITLE7=Rey De Reyes
TTITLE8=El Jardinero
TTITLE9=El Clavo
TTITLE10=Naci Con Suerte De Rey
TTITLE11=Me Enseñaste El Cobre
TTITLE12=El Crudo
TTITLE13=Corrido Del Charapo
TTITLE14=El Enca****ado (( Censored!!!:{(  ))
EXTD=
EXTT0=
EXTT1=
EXTT2=
EXTT3=
EXTT4=
EXTT5=
EXTT6=
EXTT7=
EXTT8=
EXTT9=
EXTT10=
EXTT11=
EXTT12=
EXTT13=
EXTT14=
PLAYORDER=
